<?xml version="1.0" encoding="UTF-8" standalone="no"?>
<!DOCTYPE svg PUBLIC "-//W3C//DTD SVG 1.1//EN" "http://www.w3.org/Graphics/SVG/1.1/DTD/svg11.dtd">
<svg width="100%" height="100%" viewBox="0 0 895 351" version="1.1" xmlns="http://www.w3.org/2000/svg" xmlns:xlink="http://www.w3.org/1999/xlink" xml:space="preserve" style="fill-rule:evenodd;clip-rule:evenodd;stroke-linecap:round;stroke-linejoin:round;stroke-miterlimit:1.5;">
    <g id="Artboard1" transform="matrix(1,0,0,1,-454,-418)">
        <rect x="454" y="418" width="895" height="351" style="fill:none;"/>
        <g transform="matrix(0.616371,0,0,0.581828,337.809,271.987)">
            <g transform="matrix(1,0,0,1,105.862,100.925)">
                <path d="M206.335,237.075C206.335,386.15 205.138,535.023 205.138,684.035" style="fill:none;stroke:black;stroke-width:17.38px;"/>
            </g>
            <g transform="matrix(1,0,0,1,1306.86,100.925)">
                <path d="M206.335,237.075C206.335,386.15 205.138,535.023 205.138,684.035" style="fill:none;stroke:black;stroke-width:17.38px;"/>
            </g>
            <g transform="matrix(-0.000421348,-0.647575,2.68704,-0.00174834,-325.944,472.038)">
                <path d="M206.335,237.075C206.335,386.15 205.138,535.023 205.138,684.035" style="fill:none;stroke:black;stroke-width:8.67px;"/>
            </g>
            <g transform="matrix(2.27054e-05,-0.0826011,-0.805,-0.000221278,862.841,802.056)">
                <path d="M206.335,237.075C206.335,386.15 205.138,535.023 205.138,684.035" style="fill:none;stroke:black;stroke-width:29.55px;"/>
            </g>
            <g transform="matrix(-0.000359362,0.674557,-0.80768,-0.000430282,1703.56,646.887)">
                <path d="M206.335,237.075C206.335,386.15 205.138,535.023 205.138,684.035" style="fill:none;stroke:black;stroke-width:23.24px;"/>
            </g>
        </g>
        <g transform="matrix(0.836935,0,0,0.790031,299.127,88.3161)">
            <path d="M662.698,637.572C663.964,636.306 663.964,634.534 661.685,635.04C660.166,635.293 658.647,635.293 656.875,635.293C657.382,633.268 657.382,631.496 657.635,629.471C658.901,611.244 651.559,609.725 645.483,601.624C640.42,594.789 636.117,592.763 628.522,593.27C616.877,594.029 605.485,602.383 596.118,614.028C588.524,623.395 578.904,631.749 568.778,633.268C568.778,632.002 569.031,630.737 569.031,629.471C570.296,611.244 562.702,609.725 556.879,601.624C551.816,594.536 547.513,592.51 539.918,593.27C524.729,594.536 509.286,608.965 499.413,626.18C488.274,645.926 484.224,668.203 495.616,683.14C505.742,696.304 518.147,696.81 527.26,693.772C545.994,687.696 561.689,662.128 567.005,640.356C572.575,640.356 577.891,639.344 582.701,637.065C575.866,654.027 575.106,670.988 584.22,683.14C594.093,696.304 607.004,696.81 616.117,693.772C634.598,687.696 650.293,662.128 655.61,640.61C658.647,640.356 661.179,639.344 662.698,637.572ZM554.095,611.75C554.601,616.307 554.348,622.636 552.576,630.23C547.513,626.433 545.487,619.851 546.5,612.763C547.513,605.168 553.082,603.649 554.095,611.75ZM641.18,630.483C637.129,626.686 634.091,619.345 635.357,612.509C636.623,605.168 641.686,603.649 642.699,611.75C643.205,616.307 642.952,622.636 641.18,630.483ZM639.155,637.065C637.129,643.394 634.091,650.483 630.041,657.824C617.636,680.608 602.194,689.722 595.612,683.899C589.283,678.33 592.321,654.786 603.207,635.8C608.776,626.18 615.864,617.573 622.699,612.256C622.699,621.37 628.775,630.23 634.598,634.281C635.864,635.547 637.382,636.559 639.155,637.065ZM534.095,612.256C534.095,622.889 542.449,632.509 550.55,636.812C548.778,643.141 545.487,650.23 541.437,657.824C529.032,680.608 513.843,689.215 507.008,683.899C499.92,678.33 503.717,654.786 514.602,635.8C520.172,626.18 527.26,617.573 534.095,612.256Z"/>
            <path d="M873.322,674.532C873.069,687.443 880.664,696.304 894.587,695.291C921.675,693.266 944.459,655.039 956.863,619.345C964.711,619.345 975.597,616.56 986.736,609.978C975.85,622.129 960.408,640.863 955.344,657.571C949.269,677.823 956.863,695.291 976.103,696.05C990.027,696.557 1004.96,685.418 1011.55,670.229C1014.58,663.14 1013.82,656.812 1012.56,653.774C1011.55,651.242 1009.77,651.748 1008.76,653.774C1000.66,672.76 988.001,689.468 977.369,688.709C969.521,688.203 966.736,678.33 971.04,664.406C975.091,651.748 988.001,634.028 999.9,620.357C1007.24,611.75 1001.17,600.105 996.356,594.789C994.077,592.257 992.305,592.763 988.761,595.295C979.141,601.877 969.774,606.181 960.661,607.193C965.977,589.726 968.509,574.789 960.661,575.296C950.535,576.055 926.485,610.484 946.99,617.826C935.092,655.039 912.308,686.177 896.106,687.696C888.259,688.456 887.246,679.089 893.322,664.659C898.891,651.748 912.308,632.002 917.371,620.61C922.941,607.953 921.169,597.32 917.118,592.763C915.093,590.485 913.068,591.245 911.042,594.282C909.27,596.814 905.979,601.877 902.182,608.206C902.182,599.345 897.119,591.498 887.246,591.498C874.335,591.498 854.336,603.143 834.083,632.256C813.072,662.634 818.135,694.785 841.425,694.785C853.83,694.785 865.221,684.912 873.322,674.532ZM891.043,604.409C898.385,604.915 896.106,620.864 880.411,648.457C867.5,671.241 854.336,686.684 844.21,686.431C834.337,686.177 837.121,664.153 850.792,642.382C864.715,620.104 883.195,603.902 891.043,604.409Z"/>
            <text x="386px" y="692px" style="font-family:'SignPainter-HouseScript', 'SignPainter';font-size:253.155px;">g<tspan x="662.445px 763.96px 1004.71px " y="692px 692px 692px ">d.t</tspan></text>
        </g>
        <g transform="matrix(0.836935,0,0,0.790031,190.572,132.75)">
            <text x="723px" y="767.137px" style="font-family:'Trattatello', sans-serif;font-size:65.926px;">S<tspan x="754.776px 770.73px " y="767.137px 767.137px ">in</tspan>ce 2017</text>
        </g>
    </g>
</svg>
